<?xml version="1.0" standalone="no"?>
<!DOCTYPE svg PUBLIC "-//W3C//DTD SVG 20010904//EN"
 "http://www.w3.org/TR/2001/REC-SVG-20010904/DTD/svg10.dtd">
<svg version="1.0" xmlns="http://www.w3.org/2000/svg"
 width="640.000000pt" height="640.000000pt" viewBox="0 0 640.000000 640.000000"
 preserveAspectRatio="xMidYMid meet">
<metadata>
Created by potrace 1.14, written by Peter Selinger 2001-2017
</metadata>
<g transform="translate(0.000000,640.000000) scale(0.100000,-0.100000)"
fill="#000000" stroke="none">
<path d="M0 3200 l0 -3200 3200 0 3200 0 0 3200 0 3200 -3200 0 -3200 0 0
-3200z m3775 1364 c24 -22 32 -24 47 -15 11 7 18 7 18 1 0 -5 6 -10 14 -10 14
0 33 -37 23 -46 -8 -9 -37 8 -37 22 0 8 -4 14 -10 14 -5 0 -10 -5 -10 -10 0
-7 -6 -7 -19 0 -11 5 -26 7 -34 4 -10 -3 -18 5 -26 27 -6 18 -11 34 -11 35 0
11 21 1 45 -22z m-140 -23 c-3 -6 -11 -8 -17 -5 -6 4 -5 9 3 15 16 10 23 4 14
-10z m-55 -21 c0 -5 -4 -10 -10 -10 -5 0 -10 5 -10 10 0 6 5 10 10 10 6 0 10
-4 10 -10z m174 -26 c8 -22 8 -24 -6 -21 -8 1 -14 -10 -16 -25 -3 -26 -32 -41
-32 -17 0 6 -8 18 -17 27 -16 16 -15 17 8 20 13 2 28 10 32 18 11 18 23 18 31
-2z m-304 -88 c0 -3 -4 -8 -10 -11 -5 -3 -10 -1 -10 4 0 6 5 11 10 11 6 0 10
-2 10 -4z m-63 -61 c9 -25 -4 -29 -17 -6 -7 15 -7 21 0 21 6 0 13 -7 17 -15z
m-37 -5 c0 -5 -7 -10 -15 -10 -8 0 -15 5 -15 10 0 6 7 10 15 10 8 0 15 -4 15
-10z m-65 -33 c4 -12 16 -27 28 -32 33 -15 35 -45 3 -45 -16 0 -26 -6 -26 -15
0 -23 -30 -18 -39 8 -10 27 -4 47 15 47 8 0 14 5 14 11 0 6 -6 9 -14 6 -20 -8
-27 3 -15 24 13 26 27 24 34 -4z m145 13 c-8 -5 -19 -10 -25 -10 -5 0 -3 5 5
10 8 5 20 10 25 10 6 0 3 -5 -5 -10z m0 -34 c0 -8 -4 -18 -10 -21 -5 -3 -10 3
-10 14 0 12 5 21 10 21 6 0 10 -6 10 -14z m-290 -103 c0 -5 -5 -15 -10 -23 -8
-12 -10 -11 -10 8 0 12 5 22 10 22 6 0 10 -3 10 -7z m-149 -48 c11 4 15 -4 15
-35 2 -48 -10 -51 -31 -10 -9 17 -20 30 -26 30 -8 0 -7 5 1 15 9 11 15 12 20
5 4 -6 13 -8 21 -5z m-126 -34 c3 -5 1 -12 -5 -16 -5 -3 -10 1 -10 9 0 18 6
21 15 7z m91 -46 c-3 -8 0 -15 6 -15 9 0 8 -4 -1 -12 -10 -11 -15 -9 -27 6
-19 27 -18 36 7 36 15 0 19 -5 15 -15z m-198 -80 c20 -26 21 -28 4 -50 -18
-25 -38 -23 -24 2 10 17 4 63 -8 63 -10 0 -20 52 -12 65 3 5 9 -4 13 -22 3
-17 16 -43 27 -58z m112 61 c0 -8 -9 -16 -21 -19 -29 -8 -15 -25 16 -19 20 3
24 1 19 -11 -3 -9 -12 -13 -19 -11 -7 3 -16 -4 -20 -15 -3 -12 -13 -21 -20
-21 -18 0 -28 17 -13 22 8 3 4 12 -10 26 -34 34 -27 71 10 49 16 -10 21 -9 29
6 11 19 29 14 29 -7z m-184 -45 c-3 -4 3 -16 14 -26 17 -16 28 -55 16 -55 -2
0 -11 -3 -20 -6 -12 -5 -16 0 -16 20 0 16 -6 26 -14 26 -11 0 -12 5 -3 25 7
14 16 25 20 25 5 0 6 -4 3 -9z m-66 -91 c6 -11 16 -17 22 -14 8 5 9 1 5 -10
-4 -10 -7 -22 -7 -27 0 -22 -21 -6 -35 27 -18 43 -18 44 -5 44 5 0 14 -9 20
-20z m-89 -33 c-6 -6 -11 -19 -11 -29 0 -10 -4 -18 -10 -18 -15 0 -12 58 3 63
18 7 30 -4 18 -16z m185 -4 c-10 -10 -19 5 -10 18 6 11 8 11 12 0 2 -7 1 -15
-2 -18z m-336 -13 c0 -5 -4 -10 -10 -10 -5 0 -10 5 -10 10 0 6 5 10 10 10 6 0
10 -4 10 -10z m0 -108 c0 -15 -2 -15 -10 -2 -13 20 -13 33 0 25 6 -3 10 -14
10 -23z m50 18 c0 -5 -2 -10 -4 -10 -3 0 -8 5 -11 10 -3 6 -1 10 4 10 6 0 11
-4 11 -10z m1563 -231 c14 -6 30 -23 37 -38 6 -14 23 -43 37 -63 23 -34 25
-46 24 -128 0 -50 -3 -95 -5 -99 -3 -4 -6 -98 -7 -207 -2 -248 -18 -386 -53
-458 -14 -29 -26 -58 -26 -63 0 -9 -23 -21 -71 -36 -25 -8 -115 38 -151 77
-18 20 -37 36 -42 36 -5 0 -38 -29 -73 -64 -85 -85 -137 -111 -195 -97 -111
26 -137 33 -185 51 -171 63 -249 126 -350 279 -86 130 -76 139 17 16 99 -133
133 -169 70 -75 -19 27 -110 197 -110 204 0 2 9 2 20 -1 11 -3 20 -8 20 -12 0
-10 320 5 375 18 120 27 159 56 136 100 -5 9 -11 33 -14 54 -5 34 -3 39 24 52
16 9 29 20 29 26 0 11 25 39 35 39 12 0 62 56 69 76 6 20 139 164 152 164 14
0 84 56 84 68 0 6 8 12 19 12 10 0 29 12 42 28 19 21 52 47 66 51 1 1 13 -4
26 -10z m-1093 -944 c108 -147 173 -196 335 -255 50 -18 115 -44 145 -57 70
-32 81 -36 160 -63 36 -13 78 -31 93 -42 26 -19 27 -21 10 -33 -10 -8 -22 -10
-27 -5 -5 5 -17 5 -29 -2 -30 -16 -127 3 -267 53 -57 21 -87 39 -207 126 -44
33 -74 49 -78 42 -4 -6 2 -13 14 -16 12 -3 21 -9 21 -14 0 -15 250 -196 293
-212 10 -4 15 -11 12 -17 -4 -6 6 -10 22 -10 24 0 28 -4 29 -31 1 -17 6 -34
11 -38 5 -3 18 -25 28 -48 11 -24 22 -43 26 -43 4 0 9 -10 12 -22 4 -12 9 -19
13 -15 4 4 13 -1 20 -11 12 -15 13 -14 14 13 1 29 2 28 14 -10 l12 -40 12 55
c6 30 15 74 18 98 11 69 24 48 24 -37 0 -89 -45 -414 -60 -439 -14 -22 -10
244 3 276 19 42 -3 35 -60 -21 -45 -45 -52 -55 -32 -50 13 3 34 13 47 21 13 9
22 10 22 4 0 -6 -9 -16 -21 -22 -12 -7 -18 -18 -15 -26 3 -8 -4 -19 -17 -25
-12 -7 -27 -19 -34 -28 -6 -9 -15 -16 -20 -16 -4 0 -20 -8 -34 -18 -32 -21
-99 -18 -150 8 -34 17 -125 90 -164 130 -130 135 -257 295 -234 295 5 0 9 -5
9 -11 0 -5 4 -8 9 -4 6 3 14 -3 20 -12 10 -17 10 -17 11 1 0 24 -28 56 -48 56
-21 0 5 30 27 31 9 0 4 5 -11 11 -29 10 -35 22 -18 33 6 3 10 1 10 -6 0 -7 2
-10 5 -7 5 5 -25 99 -35 108 -6 6 -50 141 -50 153 0 16 37 42 60 42 18 0 25 5
25 19 0 11 6 21 13 23 6 3 12 0 12 -7 0 -6 -5 -8 -12 -4 -6 4 -8 3 -5 -4 4 -5
17 -8 30 -4 20 5 21 4 8 -12 -8 -9 -11 -19 -7 -23 3 -4 12 2 20 12 10 15 11
23 2 37 -6 10 -14 18 -18 18 -5 0 -8 7 -8 15 0 8 -4 15 -8 15 -5 0 -14 10 -20
23 -7 12 -23 40 -37 62 -24 38 -30 49 -61 123 -29 69 -12 64 29 -8 24 -42 63
-103 87 -135z"/>
<path d="M3557 2623 c-53 -5 -58 -19 -14 -41 15 -7 27 -17 27 -22 0 -14 61
-23 73 -11 6 6 26 11 44 11 33 0 39 6 25 26 -6 10 -99 47 -105 42 -1 -1 -24
-3 -50 -5z"/>
<path d="M2950 2420 c0 -5 7 -10 16 -10 8 0 12 5 9 10 -3 6 -10 10 -16 10 -5
0 -9 -4 -9 -10z"/>
</g>
</svg>
